# AST/ASF file generated using VICON BodyLanguage
# -----------------------------------------------
:version 1.10
:name VICON
:units
  mass 1.0
  length 0.45
  angle deg
:documentation
   .ast/.asf automatically generated from VICON data using
   VICON BodyBuilder and BodyLanguage model FoxedUp or BRILLIANT.MOD
:root
   order TX TY TZ RX RY RZ
   axis XYZ
   position 0 0 0  
   orientation 0 0 0 
:bonedata
  begin
     id 1 
     name lhipjoint
     direction 0.62366 -0.717238 0.310833 
     length 2.53602 
     axis 0 0 0  XYZ
  end
  begin
     id 2 
     name lfemur
     direction 0.34202 -0.939693 0  
     length 7.40817  
     axis 0 0 20  XYZ
    dof rx ry rz
    limits (-160.0 20.0)
           (-70.0 70.0)
           (-60.0 70.0)
  end
  begin
     id 3 
     name ltibia
     direction 0.34202 -0.939693 0   
     length 7.7045   
     axis 0 0 20   XYZ
    dof rx
    limits (-10.0 170.0)
  end
  begin
     id 4 
     name lfoot
     direction 0.0673888 -0.185149 0.980397   
     length 2.09456   
     axis -90 7.62852e-016 20   XYZ
    dof rx rz
    limits (-45.0 90.0)
           (-70.0 20.0)
  end
  begin
     id 5 
     name ltoes
     direction 1.53575e-011 -4.21994e-011 1   
     length 1.05543   
     axis -90 7.62852e-016 20   XYZ
    dof rx
    limits (-90.0 20.0)
  end
  begin
     id 6 
     name rhipjoint
     direction -0.489018 -0.800347 0.346851   
     length 2.27268  
     axis 0 0 0  XYZ 
  end
  begin
     id 7 
     name rfemur
     direction -0.34202 -0.939693 0   
     length 7.55487   
     axis 0 0 -20   XYZ
    dof rx ry rz
    limits (-160.0 20.0)
           (-70.0 70.0)
           (-70.0 60.0)
  end
  begin
     id 8 
     name rtibia
     direction -0.34202 -0.939693 0   
     length 7.78969   
     axis 0 0 -20   XYZ
    dof rx
    limits (-10.0 170.0)
 end
 begin
     id 9 
     name rfoot
     direction -0.0859318 -0.236096 0.967923   
     length 2.19143  
     axis -90 -7.62852e-016 -20   XYZ
    dof rx rz
    limits (-45.0 90.0)
           (-20.0 70.0)
  end
  begin
     id 10 
     name rtoes
     direction -1.53538e-011 -4.21989e-011 1   
     length 1.09845   
     axis -90 -7.62852e-016 -20   XYZ
    dof rx
    limits (-90.0 20.0)
  end
  begin
     id 11 
     name lowerback
     direction -0.00762546 0.998978 -0.0445553   
     length 1.98161   
     axis 0 0 0   XYZ
    dof rx ry rz
    limits (-20.0 45.0)
           (-30.0 30.0)
           (-30.0 30.0)
  end
  begin
     id 12 
     name upperback
     direction 0.0422361 0.998867 -0.0219156   
     length 1.97558   
     axis 0 0 0   XYZ
    dof rx ry rz
    limits (-20.0 45.0)
           (-30.0 30.0)
           (-30.0 30.0)
  end
  begin
     id 13 
     name thorax
     direction 0.0442465 0.999021 7.47603e-005   
     length 1.97799   
     axis 0 0 0   XYZ
    dof rx ry rz
    limits (-20.0 45.0)
           (-30.0 30.0)
           (-30.0 30.0)
  end
  begin
     id 14 
     name lowerneck
     direction 0.00312169 0.984641 0.174564   
     length 1.78995   
     axis 0 0 0   XYZ
    dof rx ry rz
    limits (-20.0 45.0)
           (-30.0 30.0)
           (-30.0 30.0)
  end
  begin
     id 15 
     name upperneck
     direction -0.0383028 0.985255 -0.166749   
     length 1.83053   
     axis 0 0 0   XYZ
    dof rx ry rz
    limits (-20.0 45.0)
           (-30.0 30.0)
           (-30.0 30.0)
  end
  begin
     id 16
     name head
     direction -0.0129546 0.997059 -0.0755386  
     length 1.84088  
     axis 0 0 0   XYZ
    dof rx ry rz
    limits (-20.0 45.0)
           (-30.0 30.0)
           (-30.0 30.0)
  end
  begin
     id 17 
     name lclavicle
     direction 0.912857 0.370519 -0.171488  
     length 3.51279  
     axis 0 0 0   XYZ
    dof ry rz
    limits (-20.0 10.0)
           (0.0 20.0)
  end
  begin
     id 18 
     name lhumerus
     direction 1 -4.48962e-011 3.64361e-027   
     length 4.95663   
     axis 180 -30 -90   XYZ
    dof rx ry rz
    limits (-60.0 90.0)
           (-90.0 90.0)
           (-90.0 90.0)
  end
  begin
     id 19
     name lradius
     direction 1 -4.48974e-011 5.97202e-027   
     length 3.38177   
     axis 180 -30 -90   XYZ
    dof rx
    limits (-10.0 170.0)
  end
  begin
     id 20
     name lwrist
     direction 1 -4.4896e-011 9.83288e-027   
     length 1.69088   
     axis -9.31221e-015 90 90   XYZ
    dof ry
    limits (-180.0 0.0)
 end
  begin
     id 21 
     name lhand
     direction 1 -4.4902e-011 1.96551e-026   
     length 0.662909   
     axis -1.25475e-014 90 90   XYZ
    dof rx rz
    limits (-90.0 90.0)
           (-45.0 45.0)
  end
  begin
     id 22 
     name lfingers
     direction 1 -4.48971e-011 3.93277e-026   
     length 0.534454   
     axis -2.50945e-014 90 90   XYZ
    dof rx
    limits (0.0 90.0)
  end
  begin
     id 23
     name lthumb
     direction 0.707107 -6.34933e-011 0.707107   
     length 0.767373   
     axis -90 45 -4.80359e-014   XYZ
    dof rx rz
    limits (-45.0 45.0)
           (-45.0 45.0)
  end
  begin
     id 24 
     name rclavicle
     direction -0.900919 0.395364 -0.178976   
     length 3.40627  
     axis 0 0 0   XYZ 
    dof ry rz
    limits (-10.0 20.0)
           (-20.0 0.0)
  end
  begin
     id 25 
     name rhumerus
     direction -1 -4.48969e-011 1.03875e-027  
     length 5.08365   
     axis 180 30 90   XYZ
    dof rx ry rz
    limits (-90.0 60.0)
           (-90.0 90.0)
           (-90.0 90.0)
  end
  begin
     id 26 
     name rradius
     direction -1 -4.48951e-011 5.02733e-027   
     length 3.35984   
     axis 180 30 90   XYZ
    dof rx
    limits (-10.0 170.0)
  end
  begin
     id 27 
     name rwrist
     direction -1 -4.49011e-011 9.82828e-027   
     length 1.67992   
     axis -9.31221e-015 -90 -90   XYZ
    dof ry
    limits (-180.0 0.0)
  end
  begin
     id 28
     name rhand
     direction -1 -4.48894e-011 1.96774e-026   
     length 0.820764   
     axis -1.25475e-014 -90 -90   XYZ
    dof rx rz
    limits (-90.0 90.0)
           (-45.0 45.0)
  end
  begin
     id 29
     name rfingers
     direction -1 -4.49095e-011 3.92833e-026   
     length 0.661721   
     axis -2.50945e-014 -90 -90   XYZ
    dof rx
    limits (0.0 90.0)
  end
  begin
     id 30
     name rthumb
     direction -0.707107 -6.34881e-011 0.707107   
     length 0.950103   
     axis -90 -45 4.80359e-014   XYZ
    dof rx rz
    limits (-45.0 45.0)
           (-45.0 45.0)
  end
:hierarchy
  begin
    root lhipjoint rhipjoint lowerback
    lhipjoint lfemur
    lfemur ltibia
    ltibia lfoot
    lfoot ltoes
    rhipjoint rfemur
    rfemur rtibia
    rtibia rfoot
    rfoot rtoes
    lowerback upperback
    upperback thorax
    thorax lowerneck lclavicle rclavicle
    lowerneck upperneck
    upperneck head
    lclavicle lhumerus
    lhumerus lradius
    lradius lwrist
    lwrist lhand lthumb
    lhand lfingers
    rclavicle rhumerus
    rhumerus rradius
    rradius rwrist
    rwrist rhand rthumb
    rhand rfingers
  end

#!OML:ASF I:\golf\golf\golf 2\Subject 1\2002-09-07\Subject1.ASF
:FULLY-SPECIFIED
:DEGREES
1
root -1.4577 18.1818 -5.40717 8.46152 2.01678 -5.37904
lowerback -5.13142 1.18261 0.189056
upperback -1.57519 1.52306 3.01536
thorax 1.1785 0.766829 3.08832
lowerneck -20.3546 1.65496 5.1551
upperneck 28.4861 2.90153 -7.1198
head 13.1336 0.872309 -3.16923
rclavicle -1.79527e-014 6.55989e-015
rhumerus -43.194 30.2514 -100.92
rradius 92.8945
rwrist -18.4935
rhand -9.70456 16.3471
rfingers 7.12502
rthumb 16.2681 -12.9904
lclavicle -1.79527e-014 6.55989e-015
lhumerus -41.8876 -33.9103 104.192
lradius 85.7964
lwrist 12.7656
lhand -3.95919 30.9857
lfingers 7.12502
lthumb 21.7931 59.7787
rfemur -12.0159 0.788852 29.003
rtibia 21.1451
rfoot -11.7242 -5.06152
rtoes 7.35695
lfemur -12.3475 3.63693 -12.7703
ltibia 23.5015
lfoot -11.1566 3.96274
ltoes 7.46045
2
root -1.44653 18.1852 -5.41061 8.50306 1.8702 -5.42514
lowerback -5.10055 1.2437 0.256552
upperback -1.5928 1.60256 2.99044
thorax 1.14165 0.806901 3.028
lowerneck -20.2396 1.75822 5.22732
upperneck 28.7661 3.10471 -7.28781
head 13.2471 0.948627 -3.22262
rclavicle -1.52816e-014 2.14687e-014
rhumerus -43.1849 30.4043 -101.002
rradius 92.8792
rwrist -18.518
rhand -9.83855 16.6606
rfingers 7.12502
rthumb 16.1391 -12.6874
lclavicle -1.52816e-014 2.14687e-014
lhumerus -41.8269 -33.7774 104.009
lradius 85.8829
lwrist 13.1744
lhand -3.9659 31.0199
lfingers 7.12502
lthumb 21.7867 59.8137
rfemur -12.0626 0.772693 28.9902
rtibia 21.1261
rfoot -11.641 -4.94125
rtoes 7.05557
lfemur -12.381 3.85555 -12.7926
ltibia 23.5227
lfoot -11.1939 3.92702
ltoes 7.91382
3
root -1.43334 18.1866 -5.41337 8.47242 1.73121 -5.34501
lowerback -5.15297 1.30271 0.136851
upperback -1.50025 1.684 2.97585
thorax 1.2589 0.846169 3.08825
lowerneck -20.1874 1.83017 5.24333
upperneck 29.0857 3.27416 -7.42776
head 13.3875 1.00638 -3.263
rclavicle 1.07592e-014 3.12092e-014
rhumerus -43.0335 30.5708 -100.906
rradius 92.9129
rwrist -18.6014
rhand -9.7599 16.7327
rfingers 7.12502
rthumb 16.2148 -12.6091
lclavicle 1.07592e-014 3.12092e-014
lhumerus -41.5878 -33.6623 103.846
lradius 85.9477
lwrist 13.4751
lhand -3.99015 31.3845
lfingers 7.12502
lthumb 21.7634 60.1809
rfemur -12.0573 0.6645 28.8399
rtibia 21.1571
rfoot -11.5938 -4.78875
rtoes 6.58387
lfemur -12.2902 3.91568 -12.9545
ltibia 23.4615
lfoot -11.0781 4.02357
ltoes 7.43906
4
root -1.41499 18.1853 -5.41646 8.42615 1.82807 -5.24455
lowerback -5.19388 1.29847 0.0699655
upperback -1.41666 1.67918 2.95596
thorax 1.3666 0.842255 3.10779
lowerneck -20.14 1.89814 5.24618
upperneck 29.4176 3.43681 -7.54406
head 13.5344 1.06258 -3.29361
rclavicle 1.44989e-014 2.74323e-014
rhumerus -42.8517 30.6541 -100.749
rradius 92.911
rwrist -18.7619
rhand -9.32398 16.8223
rfingers 7.12502
rthumb 16.6346 -12.4849
lclavicle 1.44989e-014 2.74323e-014
lhumerus -41.3 -33.511 103.673
lradius 85.8862
lwrist 13.6304
lhand -3.72094 31.1732
lfingers 7.12502
lthumb 22.0219 59.9395
rfemur -12.0204 0.48626 28.6827
rtibia 21.1363
rfoot -11.5918 -4.74013
rtoes 6.22427
lfemur -12.2838 3.77657 -13.1234
ltibia 23.4611
lfoot -10.9931 4.07178
ltoes 6.82738
5
root -1.39823 18.1858 -5.42862 8.36273 2.21204 -5.21072
lowerback -5.07254 1.21132 0.0710913
upperback -1.37595 1.56375 2.97987
thorax 1.34624 0.784439 3.12225
lowerneck -20.0983 1.95609 5.25853
upperneck 29.7507 3.60303 -7.72053
head 13.6865 1.11284 -3.35014
rclavicle 2.36181e-014 -1.78906e-015
rhumerus -42.6759 30.7334 -100.564
rradius 92.8673
rwrist -18.9851
rhand -9.17344 16.9382
rfingers 7.12502
rthumb 16.7795 -12.3567
lclavicle 2.36181e-014 -1.78906e-015
lhumerus -41.2937 -33.2003 103.533
lradius 85.9559
lwrist 13.7154
lhand -3.1623 30.8201
lfingers 7.12502
lthumb 22.5582 59.5222
rfemur -12.0021 0.338554 28.6258
rtibia 21.1282
rfoot -11.6471 -4.94141
rtoes 6.51906
lfemur -12.3641 3.50541 -13.1841
ltibia 23.4632
lfoot -11.0056 3.9071
ltoes 6.9545
6
root -1.38488 18.1877 -5.43406 8.27266 2.37477 -5.33553
lowerback -4.97224 1.19161 0.219465
upperback -1.33122 1.53009 3.01854
thorax 1.3409 0.767566 3.07471
lowerneck -19.9941 1.99976 5.26918
upperneck 30.0634 3.74719 -7.88443
head 13.8158 1.15591 -3.4047
rclavicle 1.54804e-014 3.16068e-014
rhumerus -42.5894 30.8112 -100.498
rradius 92.8419
rwrist -19.2835
rhand -9.20914 17.0196
rfingers 7.12502
rthumb 16.7451 -12.2783
lclavicle 1.54804e-014 3.16068e-014
lhumerus -41.2226 -33.0347 103.45
lradius 85.9909
lwrist 14.0764
lhand -3.32909 31.6161
lfingers 7.12502
lthumb 22.3981 60.3376
rfemur -11.9342 0.346691 28.7308
rtibia 21.1505
rfoot -11.6668 -5.08724
rtoes 6.84773
lfemur -12.3254 3.4747 -13.0692
ltibia 23.4693
lfoot -10.997 3.8007
ltoes 6.878
7
root -1.37117 18.1891 -5.4374 8.19778 2.52232 -5.32247
lowerback -4.81956 1.16884 0.301598
upperback -1.36885 1.50086 2.94899
thorax 1.22254 0.753982 2.9501
lowerneck -19.7125 2.0582 5.34864
upperneck 30.3358 3.86663 -7.96833
head 13.887 1.21093 -3.441
rclavicle 1.44616e-014 2.34566e-014
rhumerus -42.6545 30.781 -100.637
rradius 92.8386
rwrist -19.6531
rhand -8.9065 16.9781
rfingers 7.12502
rthumb 17.0364 -12.2949
lclavicle 1.44616e-014 2.34566e-014
lhumerus -41.3211 -32.9168 103.334
lradius 86.1885
lwrist 14.5775
lhand -3.65457 32.6071
lfingers 7.12502
lthumb 22.0856 61.3658
rfemur -11.8793 0.198753 28.6851
rtibia 21.1691
rfoot -11.6503 -5.11848
rtoes 6.70907
lfemur -12.2841 3.38812 -13.1186
ltibia 23.4827
lfoot -11.0363 3.81114
ltoes 6.24749
8
root -1.35591 18.1882 -5.44556 8.14611 2.77739 -5.11617
lowerback -4.59585 1.11406 0.188766
upperback -1.45899 1.44154 2.82864
thorax 1.00828 0.72608 2.87885
lowerneck -19.3226 2.10952 5.46129
upperneck 30.5939 3.96498 -8.04133
head 13.9271 1.26483 -3.48164
rclavicle -1.76421e-015 -7.35503e-015
rhumerus -42.7316 30.7068 -100.73
rradius 92.8617
rwrist -20.1407
rhand -8.2678 16.8928
rfingers 7.12502
rthumb 17.6511 -12.326
lclavicle -1.76421e-015 -7.35503e-015
lhumerus -41.5086 -32.7354 103.201
lradius 86.236
lwrist 14.9463
lhand -3.32217 32.241
lfingers 7.12502
lthumb 22.4047 60.9617
rfemur -11.8759 -0.0276928 28.4347
rtibia 21.1918
rfoot -11.6218 -5.21714
rtoes 6.59296
lfemur -12.3 3.13927 -13.3768
ltibia 23.4721
lfoot -11.1085 3.78954
ltoes 5.89437
9
root -1.34238 18.1906 -5.44777 8.24841 2.81515 -5.04709
lowerback -4.67688 1.13212 0.133056
upperback -1.47559 1.46783 2.77474
thorax 1.03522 0.739108 2.85768
lowerneck -19.186 2.16789 5.52196
upperneck 30.9314 4.09856 -8.14454
head 14.0615 1.31842 -3.52431
rclavicle 2.53202e-014 1.5704e-014
rhumerus -42.6799 30.6453 -100.642
rradius 92.9422
rwrist -20.7274
rhand -7.68204 16.9755
rfingers 7.12502
rthumb 18.2148 -12.1916
lclavicle 2.53202e-014 1.5704e-014
lhumerus -41.477 -32.6543 103.03
lradius 86.1645
lwrist 15.2553
lhand -3.07321 31.6175
lfingers 7.12502
lthumb 22.6437 60.3092
rfemur -12.0177 0.109721 28.316
rtibia 21.2416
rfoot -11.5411 -5.44341
rtoes 6.23383
lfemur -12.3979 3.03873 -13.4886
ltibia 23.4231
lfoot -11.181 3.80188
ltoes 6.46031
